<?xml version="1.0" encoding="UTF-8" standalone="no"?>
<!-- Created with Inkscape (http://www.inkscape.org/) -->

<svg
   xmlns:svg="http://www.w3.org/2000/svg"
   xmlns="http://www.w3.org/2000/svg"
   version="1.1"
   width="78.562302mm"
   height="73.836403mm"
   viewBox="0 0 77.5582 72.8927"
   id="svg2"
   xml:space="preserve"
   style="fill-rule:evenodd">
 <defs
   id="defs4">
  <style
   type="text/css"
   id="style6" />
 </defs>
 <g
   id="Layer_x0020_1">
  <path
   d="m 1.41143,15.8394 0.858683,-1.26097 1.58903,-0.126364 0.12587,0.807446 1.13461,-0.07552 0.201985,-1.91708 1.31211,-1.26107 1.79101,0.530038 0.60635,-1.33709 1.86486,-0.403674 -0.605067,-0.9078473 0.12587,-0.88287 1.46276,0.680786 0.07651,-1.33669 1.05948,-0.252531 2.11778,2.1187703 0.605461,-0.2774093 -0.479591,-1.05909 1.13491,0.327855 c 0,0 0,-0.932922 0.656106,-0.983961 0.68128,-0.075325 0.731924,0 0.731924,0 l -0.12587,0.732122 1.26147,-0.404069 0.326868,-1.33689 1.387931,-0.12587 0.731528,-1.05899 0.276619,-1.26196 1.59031,-0.604474 0.780495,-1.11082 2.47219,-0.201195 3.37965,0.8574 1.46257,1.18516 1.18624,1.33798 -0.201689,1.46247 2.26991,0.857202 2.24503,-1.53898 3.50542,1.21092 0.806064,2.1190703 1.38833,-0.327855 0.40239,-1.6648503 5.97899,-3.78332 2.44574,0.529939 1.79101,-1.05968 1.992311,-0.125278 1.66514,-1.58952 0.529248,-1.05929 1.79101,-0.076016 1.43729,-1.18535 1.08456,0.252531 -0.201689,1.13491 -0.730838,0 0.125179,1.86594 2.52225,1.91718 1.1352,-0.655711 0.781877,0.782075 -0.251938,3.17746 0.73222,1.1354 1.63859,1.3875402 0.327558,1.21073 1.21112,0.856906 2.39638,0.529742 2.8504,2.64891 0.781285,-0.202182 1.00874,1.05879 0.832917,0.883857 -0.908735,0.78089 0.984257,1.51351 0.680589,0.731529 -1.58903,0.202084 -0.277211,0.933712 1.53868,0.806064 -1.41281,1.38764 -1.38625,0.126364 0.402983,1.05938 0.983271,0.12587 0.327163,1.41281 0.481269,0.781384 -0.07651,0.730838 -0.857795,0.328744 -0.655711,2.79965 -1.33561,-0.07542 -0.201985,0.806755 1.0584,0.126265 -1.71549,0.983665 -0.07552,3.12731 0.605067,0.126364 0,1.05889 0.808039,0.681082 -0.07651,2.04265 0.656106,0.47969 1.26078,0.126759 -0.05035,0.730147 -1.13461,0.126759 0.201689,0.807249 -0.730937,0.731529 -0.07651,0.579892 0.02557,0.25184 -0.352733,0.807249 -1.33758,-0.125673 -3.7075,-0.807249 -0.125476,0.403871 -1.66623,0.07532 -0.401996,0.604672 -0.73222,1.63977 2.59737,1.21092 -1.13431,0.907847 -1.79091,0.353227 -0.12587,0.58009 0.327558,1.21112 -1.790419,0.983566 -0.125082,1.79012 -1.059779,-0.125969 -0.656797,0.933613 -0.807052,-0.07592 0,0.655711 1.71519,1.21102 -0.12587,0.529347 -1.7148,-0.277409 -0.327559,0.403279 -1.01042,0.201985 -0.78089,1.46316 0,2.04285 -1.53759,-0.453923 0,-1.1354 -0.858091,-0.07572 -0.404464,1.86673 -1.05909,-0.453726 -0.730542,1.05909 1.3363,1.46296 -0.479196,0.52984 -1.7148,-1.9928 -0.403773,0.529051 -0.580584,-0.529051 -1.66376,0.126364 -0.203367,1.13441 -0.932231,0.05055 -0.730937,-0.983961 -0.52984,0.404167 -0.606054,-0.202479 -0.858091,0.933909 0.201985,1.10963 0.656106,0.529347 c 0,0 0.883561,1.46266 0.807743,1.53898 -0.07621,0.04985 -0.605758,0.454022 -0.605758,0.454022 l 0.151045,1.21033 0.3785,0 0,0.655908 0.529544,0.8574 -0.377513,-0.630438 -0.933909,0.100894 -0.200998,-0.530137 -0.933909,0.202281 0,1.18535 -1.18496,0.152032 -2.72522,-2.27021 -2.06783,2.72374 -0.327559,0.983764 0.277507,0.933317 -0.857104,0.327461 -0.883561,-0.655513 -0.579201,0.732023 -0.403674,-0.530729 0.453331,-1.1351 -1.31182,-1.51281 0.53063,-1.00874 -1.74175,-1.63977 -1.38625,-0.806558 0.277902,-0.731628 -0.807446,-0.807743 0.277902,-0.907254 -0.731924,-0.681477 -1.66485,-0.201393 0.126167,-0.857597 -0.858091,-0.202182 0.126561,-0.907748 -0.528557,-0.403378 0.326868,-1.00923 -0.907748,-0.857202 -0.882574,-0.40318 0.681872,-1.38773 -1.2128,-0.983566 -0.907353,1.26097 -0.731628,0.3785 -0.480578,0.680786 -0.728864,0.202281 -0.580485,0.579794 -1.21112,-0.529939 -1.79003,0.202084 -0.40476,-0.857992 -0.984257,0.454812 -0.528458,-0.656303 -3.128,0.125179 -1.31073,-1.10855 -1.38803,-0.201886 -1.13461,-1.38724 -0.806657,-0.07641 -0.126561,-0.730542 -1.26246,-0.8574 -0.654329,0.529051 -0.605461,-0.529051 0.656106,-0.731529 -1.4389705,-1.05998 -2.52126,0.05104 -0.680194,0.503975 0.075127,0.176712 -0.202972,-0.403871 -0.529248,-1.53828 -0.52984,-0.177107 -0.529248,-1.41261 0.983863,-3.10155 4.51357,0.933021 1.1357001,-0.151341 0.07513,0.479394 1.06077,-0.479394 -0.201689,-1.18545 1.84136,-2.26952 -0.781877,-0.176613 0.04936,-2.2706 -0.78168,-0.05015 0.32825,-1.66445 3.25308,0.454516 0.454022,-1.26147 -1.46345,-0.327855 -0.781581,-1.26147 2.04374,-0.327954 -1.59031,-3.50581 -1.25811,0.251938 -1.91984,-0.251938 -0.856709,-1.33719 -0.9329217,-0.402884 -0.404069,-3.98501 -2.11788,-0.580189 -2.24503,0.125673 0,-0.529347 0.933317,-0.857597 -1.1356,-0.07532 -0.806064,0.806657 -2.04344,-1.46276 -0.731529,-0.201985 -0.328547,-1.26097 -0.528853,-0.07602 -0.151637,-0.731233 0.731134,-1.51311 0.530235,-1.86624 0.479196,-1.11023 -0.151242,-1.3361 -0.353128,-0.177008 0.175231,-0.227159 z"
   id="path10"
   style="fill:#283b56" />
 </g>
</svg>