<svg height="400pt" viewBox="0 0 400 400" width="400pt" xmlns="http://www.w3.org/2000/svg" xmlns:xlink="http://www.w3.org/1999/xlink"><clipPath id="a"><path d="m0 0h400v400h-400z"/></clipPath><linearGradient id="b" gradientTransform="matrix(-262.012 -520.564 520.868 -261.86 307.45 413.475)" gradientUnits="userSpaceOnUse" x1="0" x2="1" y1="0" y2="0"><stop offset="0" stop-color="#83d4f7"/><stop offset=".160891" stop-color="#83d4f7"/><stop offset=".938119" stop-color="#b3eaf7"/><stop offset="1" stop-color="#b3eaf7"/></linearGradient><linearGradient id="c"><stop offset="0" stop-color="#edf9fe"/><stop offset=".160891" stop-color="#edf9fe"/><stop offset=".938119" stop-color="#f4fcfe"/><stop offset="1" stop-color="#f4fcfe"/></linearGradient><linearGradient id="d" gradientTransform="matrix(-262.013 -520.564 520.868 -261.86 307.45 413.475)" gradientUnits="userSpaceOnUse" x1="0" x2="1" xlink:href="#c" y1="0" y2="0"/><linearGradient id="e" gradientTransform="matrix(-262.012 -520.564 520.868 -261.86 307.45 413.475)" gradientUnits="userSpaceOnUse" x1="0" x2="1" xlink:href="#c" y1="0" y2="0"/><g clip-path="url(#a)"><path d="m200.12 399c-109.837 0-198.877-88.988-198.877-198.764 0-109.773 89.04-198.761 198.877-198.761 109.84 0 198.88 88.988 198.88 198.761 0 109.776-89.04 198.764-198.88 198.764zm.429-140.246c12.738 16.749 43.185 54.195 67.735 63.915 1.714.682 3.365 1.004 4.959 1.004 17.934 0 28.339-41.207 34.302-82.407 5.824-40.238 7.415-80.476 7.658-82.341l.026-.019c-.004-.031-.007-.05-.01-.05s-.009.025-.016.069l-114.654 87.058-114.657-87.058c-.006-.044-.013-.069-.016-.069s-.006.019-.009.05l.025.019c.243 1.868 1.837 42.106 7.661 82.341 5.964 41.2 16.365 82.404 34.302 82.407 1.594 0 3.245-.322 4.959-1.004 24.547-9.72 54.998-47.166 67.735-63.915z" fill="url(#b)" fill-rule="evenodd"/><path d="m127.855 323.673c-17.937-.003-28.338-41.207-34.302-82.407-5.824-40.235-7.418-80.473-7.661-82.341l114.657 87.058-6.042 4.59s2.226 3.158 6.042 8.181c-12.737 16.749-43.188 54.195-67.735 63.915-1.714.682-3.365 1.004-4.959 1.004zm-41.963-164.748-.025-.019c.003-.031.006-.05.009-.05s.01.025.016.069z" fill="url(#d)" fill-rule="evenodd"/><path d="m273.243 323.673c-1.594 0-3.245-.322-4.959-1.004-24.55-9.72-54.997-47.166-67.735-63.915 3.817-5.023 6.042-8.181 6.042-8.181l-6.042-4.59 114.654-87.058c-.243 1.865-1.834 42.103-7.658 82.341-5.963 41.2-16.368 82.407-34.302 82.407z" fill="url(#e)"/><path d="m314.736 158.906c0 24.479-22.492 45.387-49.795 62.193-21.611 13.308-45.341 26.641-64.177 34.547-18.837-7.906-44.347-21.239-65.955-34.547-27.303-16.806-49.795-37.714-49.795-62.193 0-45.342 36.789-82.107 82.159-82.107 6.518 0 13.378 2.985 20.342 8.238 7.339 5.537 17.378 5.537 24.717 0 6.967-5.253 13.824-8.238 20.346-8.238 45.369 0 82.158 36.765 82.158 82.107z" fill="#fff"/></g></svg>